<?xml version="1.0" encoding="UTF-8"?>
<!DOCTYPE svg PUBLIC "-//W3C//DTD SVG 1.1//EN" "http://www.w3.org/Graphics/SVG/1.1/DTD/svg11.dtd">
<svg xmlns="http://www.w3.org/2000/svg" version="1.1" width="32px" height="32px" style="shape-rendering:geometricPrecision; text-rendering:geometricPrecision; image-rendering:optimizeQuality; fill-rule:evenodd; clip-rule:evenodd" xmlns:xlink="http://www.w3.org/1999/xlink">
<g><path style="opacity:0.957" fill="#1976f0" d="M 10.5,-0.5 C 13.8333,-0.5 17.1667,-0.5 20.5,-0.5C 25.5,1.83333 29.1667,5.5 31.5,10.5C 31.5,11.8333 31.5,13.1667 31.5,14.5C 27.8971,12.2369 24.5638,9.57025 21.5,6.5C 21.2089,5.35089 20.3756,4.68423 19,4.5C 17.9302,4.52804 17.0968,4.86137 16.5,5.5C 15.5041,5.41423 14.6708,5.74756 14,6.5C 13.5045,8.4727 13.3379,10.4727 13.5,12.5C 12.1667,12.5 10.8333,12.5 9.5,12.5C 9.23219,14.099 9.56552,15.4324 10.5,16.5C 11.9807,19.728 12.9807,23.0614 13.5,26.5C 13.8333,26.5 14.1667,26.5 14.5,26.5C 15.925,27.922 16.925,29.5887 17.5,31.5C 15.1667,31.5 12.8333,31.5 10.5,31.5C 5.5,29.1667 1.83333,25.5 -0.5,20.5C -0.5,17.1667 -0.5,13.8333 -0.5,10.5C 1.83333,5.5 5.5,1.83333 10.5,-0.5 Z"/></g>
<g><path style="opacity:1" fill="#8cacd8" d="M 16.5,5.5 C 17.0968,4.86137 17.9302,4.52804 19,4.5C 20.3756,4.68423 21.2089,5.35089 21.5,6.5C 21.6716,7.49162 21.3382,8.15829 20.5,8.5C 20.5,7.5 20.5,6.5 20.5,5.5C 19.1667,5.5 17.8333,5.5 16.5,5.5 Z"/></g>
<g><path style="opacity:1" fill="#ecf1f7" d="M 16.5,5.5 C 17.8333,5.5 19.1667,5.5 20.5,5.5C 20.5,6.5 20.5,7.5 20.5,8.5C 19.5,8.5 18.5,8.5 17.5,8.5C 17.5,9.83333 17.5,11.1667 17.5,12.5C 18.5,12.5 19.5,12.5 20.5,12.5C 20.5,13.8333 20.5,15.1667 20.5,16.5C 19.5,16.5 18.5,16.5 17.5,16.5C 17.5,19.8333 17.5,23.1667 17.5,26.5C 16.5,26.5 15.5,26.5 14.5,26.5C 14.1667,26.5 13.8333,26.5 13.5,26.5C 13.5,23.1667 13.5,19.8333 13.5,16.5C 12.5,16.5 11.5,16.5 10.5,16.5C 9.56552,15.4324 9.23219,14.099 9.5,12.5C 10.8333,12.5 12.1667,12.5 13.5,12.5C 13.3379,10.4727 13.5045,8.4727 14,6.5C 14.6708,5.74756 15.5041,5.41423 16.5,5.5 Z"/></g>
<g><path style="opacity:1" fill="#1a57a6" d="M 21.5,6.5 C 24.5638,9.57025 27.8971,12.2369 31.5,14.5C 31.5,16.5 31.5,18.5 31.5,20.5C 29.1667,25.5 25.5,29.1667 20.5,31.5C 19.5,31.5 18.5,31.5 17.5,31.5C 16.925,29.5887 15.925,27.922 14.5,26.5C 15.5,26.5 16.5,26.5 17.5,26.5C 17.5,23.1667 17.5,19.8333 17.5,16.5C 18.5,16.5 19.5,16.5 20.5,16.5C 20.5,15.1667 20.5,13.8333 20.5,12.5C 19.5,12.5 18.5,12.5 17.5,12.5C 17.5,11.1667 17.5,9.83333 17.5,8.5C 18.5,8.5 19.5,8.5 20.5,8.5C 21.3382,8.15829 21.6716,7.49162 21.5,6.5 Z"/></g>
<g><path style="opacity:1" fill="#4d85d0" d="M 10.5,16.5 C 11.5,16.5 12.5,16.5 13.5,16.5C 13.5,19.8333 13.5,23.1667 13.5,26.5C 12.9807,23.0614 11.9807,19.728 10.5,16.5 Z"/></g>
</svg>
