<svg xmlns="http://www.w3.org/2000/svg" version="1.1" width="32px" height="32px" xmlnsXlink="http://www.w3.org/1999/xlink">
<g><path fill="#7637aa" d="M 13.5,-0.5 C 15.8333,-0.5 18.1667,-0.5 20.5,-0.5C 25.5,1.83333 29.1667,5.5 31.5,10.5C 31.5,11.8333 31.5,13.1667 31.5,14.5C 29.5,12.8333 27.5,11.1667 25.5,9.5C 24.7638,7.77055 23.4305,6.77055 21.5,6.5C 20.791,5.59603 19.791,5.26269 18.5,5.5C 16.8333,3.5 15.1667,1.5 13.5,-0.5 Z"/></g><g><path fill="#a53392" d="M 10.5,-0.5 C 11.5,-0.5 12.5,-0.5 13.5,-0.5C 15.1667,1.5 16.8333,3.5 18.5,5.5C 16.1667,5.5 13.8333,5.5 11.5,5.5C 10.5,4.16667 9.5,2.83333 8.5,1.5C 9.16667,0.833333 9.83333,0.166667 10.5,-0.5 Z"/></g><g><path fill="#d3496d" d="M 8.5,1.5 C 9.5,2.83333 10.5,4.16667 11.5,5.5C 6.6305,7.04935 4.6305,10.3827 5.5,15.5C 3.75405,13.7484 1.75405,12.4151 -0.5,11.5C -0.5,11.1667 -0.5,10.8333 -0.5,10.5C 1.39306,6.36956 4.39306,3.36956 8.5,1.5 Z"/></g><g><path fill="#eddbde" d="M 11.5,5.5 C 13.8333,5.5 16.1667,5.5 18.5,5.5C 19.791,5.26269 20.791,5.59603 21.5,6.5C 21.5,7.16667 21.1667,7.5 20.5,7.5C 16.6286,7.18503 12.9619,7.51836 9.5,8.5C 8.88258,8.61071 8.38258,8.94404 8,9.5C 4.49984,21.8336 8.99984,26.5002 21.5,23.5C 21.5,23.8333 21.5,24.1667 21.5,24.5C 20.0813,25.4511 18.4147,25.7845 16.5,25.5C 14.1667,25.5 11.8333,25.5 9.5,25.5C 7.46888,24.4613 6.13554,22.7946 5.5,20.5C 5.5,18.8333 5.5,17.1667 5.5,15.5C 4.6305,10.3827 6.6305,7.04935 11.5,5.5 Z"/></g><g><path fill="#efe3ec" d="M 21.5,6.5 C 23.4305,6.77055 24.7638,7.77055 25.5,9.5C 25.5,11.8333 25.5,14.1667 25.5,16.5C 25.5,18.1667 25.5,19.8333 25.5,21.5C 24.1667,22.5 22.8333,23.5 21.5,24.5C 21.5,24.1667 21.5,23.8333 21.5,23.5C 21.5,23.1667 21.5,22.8333 21.5,22.5C 22.1667,22.5 22.5,22.1667 22.5,21.5C 23.6453,17.6888 23.8119,13.6888 23,9.5C 22.0053,8.93406 21.172,8.26739 20.5,7.5C 21.1667,7.5 21.5,7.16667 21.5,6.5 Z"/></g><g><path fill="#f2e6ea" d="M 15.5,10.5 C 17.674,10.7497 19.3406,11.7497 20.5,13.5C 20.8333,18.5 18.5,20.8333 13.5,20.5C 10.6484,18.4275 9.98178,15.7608 11.5,12.5C 12.5769,11.2949 13.9102,10.6282 15.5,10.5 Z"/></g><g><path fill="#e7794b" d="M -0.5,11.5 C 1.75405,12.4151 3.75405,13.7484 5.5,15.5C 5.5,17.1667 5.5,18.8333 5.5,20.5C 3.5,18.8333 1.5,17.1667 -0.5,15.5C -0.5,14.1667 -0.5,12.8333 -0.5,11.5 Z"/></g><g><path fill="#d55c70" d="M 9.5,8.5 C 12.0821,8.02539 14.0821,8.69206 15.5,10.5C 13.9102,10.6282 12.5769,11.2949 11.5,12.5C 9.98178,15.7608 10.6484,18.4275 13.5,20.5C 13.6107,21.1174 13.944,21.6174 14.5,22C 16.8098,22.4966 19.1432,22.6633 21.5,22.5C 21.5,22.8333 21.5,23.1667 21.5,23.5C 8.99984,26.5002 4.49984,21.8336 8,9.5C 8.38258,8.94404 8.88258,8.61071 9.5,8.5 Z"/></g><g><path fill="#782f87" d="M 25.5,9.5 C 27.5,11.1667 29.5,12.8333 31.5,14.5C 31.5,16.5 31.5,18.5 31.5,20.5C 31.1667,20.5 30.8333,20.5 30.5,20.5C 28.8207,19.0837 27.1541,17.7503 25.5,16.5C 25.5,14.1667 25.5,11.8333 25.5,9.5 Z"/></g><g><path fill="#8d3851" d="M 13.5,12.5 C 18.1585,12.0146 19.4919,13.848 17.5,18C 12.7282,18.8104 11.3948,16.9771 13.5,12.5 Z"/></g><g><path fill="#a94e89" d="M 9.5,8.5 C 12.9619,7.51836 16.6286,7.18503 20.5,7.5C 21.172,8.26739 22.0053,8.93406 23,9.5C 23.8119,13.6888 23.6453,17.6888 22.5,21.5C 22.7062,18.5049 22.0395,15.8383 20.5,13.5C 19.3406,11.7497 17.674,10.7497 15.5,10.5C 14.0821,8.69206 12.0821,8.02539 9.5,8.5 Z"/></g><g><path fill="#daab3e" d="M -0.5,20.5 C -0.5,20.1667 -0.5,19.8333 -0.5,19.5C 4.5,22.5 8.5,26.5 11.5,31.5C 11.1667,31.5 10.8333,31.5 10.5,31.5C 5.5,29.1667 1.83333,25.5 -0.5,20.5 Z"/></g><g><path fill="#a43e5b" d="M 20.5,13.5 C 22.0395,15.8383 22.7062,18.5049 22.5,21.5C 22.5,22.1667 22.1667,22.5 21.5,22.5C 19.1432,22.6633 16.8098,22.4966 14.5,22C 13.944,21.6174 13.6107,21.1174 13.5,20.5C 18.5,20.8333 20.8333,18.5 20.5,13.5 Z"/></g><g><path fill="#e29643" d="M -0.5,15.5 C 1.5,17.1667 3.5,18.8333 5.5,20.5C 6.13554,22.7946 7.46888,24.4613 9.5,25.5C 11.1667,27.5 12.8333,29.5 14.5,31.5C 13.5,31.5 12.5,31.5 11.5,31.5C 8.5,26.5 4.5,22.5 -0.5,19.5C -0.5,18.1667 -0.5,16.8333 -0.5,15.5 Z"/></g><g><path fill="#b13077" d="M 25.5,16.5 C 27.1541,17.7503 28.8207,19.0837 30.5,20.5C 30.3404,22.153 29.6737,23.4863 28.5,24.5C 26.8102,24.1436 25.8102,23.1436 25.5,21.5C 25.5,19.8333 25.5,18.1667 25.5,16.5 Z"/></g><g><path fill="#c94664" d="M 25.5,21.5 C 25.8102,23.1436 26.8102,24.1436 28.5,24.5C 26.7122,27.6149 24.0455,29.6149 20.5,30.5C 19.1667,28.8333 17.8333,27.1667 16.5,25.5C 18.4147,25.7845 20.0813,25.4511 21.5,24.5C 22.8333,23.5 24.1667,22.5 25.5,21.5 Z"/></g><g><path fill="#c36843" d="M 9.5,25.5 C 11.8333,25.5 14.1667,25.5 16.5,25.5C 17.8333,27.1667 19.1667,28.8333 20.5,30.5C 20.5,30.8333 20.5,31.1667 20.5,31.5C 18.5,31.5 16.5,31.5 14.5,31.5C 12.8333,29.5 11.1667,27.5 9.5,25.5 Z"/></g>
</svg>
