<svg xmlns="http://www.w3.org/2000/svg" version="1.1" width="32px" height="32px" xmlnsXlink="http://www.w3.org/1999/xlink"><g><path fill="#3a96d6" d="M 15.5,-0.5 C 16.5,-0.5 17.5,-0.5 18.5,-0.5C 18.573,1.02694 17.9063,2.02694 16.5,2.5C 16.1667,2.5 15.8333,2.5 15.5,2.5C 15.5,1.5 15.5,0.5 15.5,-0.5 Z"/></g><g><path fill="#f0c419" d="M 22.5,2.5 C 22.5,3.16667 22.5,3.83333 22.5,4.5C 22.2914,5.92167 21.7914,7.25501 21,8.5C 20.0228,9.77359 19.1894,9.77359 18.5,8.5C 18.5,8.16667 18.5,7.83333 18.5,7.5C 19.3909,6.73867 20.0576,5.73867 20.5,4.5C 19.3554,3.10903 19.3554,1.7757 20.5,0.5C 21.1818,1.24269 21.8485,1.90935 22.5,2.5 Z"/></g><g><path fill="#9558a6" d="M 22.5,4.5 C 22.5,3.83333 22.5,3.16667 22.5,2.5C 24.5428,-0.19369 26.2095,0.139643 27.5,3.5C 26.218,5.70428 24.5514,6.03762 22.5,4.5 Z"/></g><g><path fill="#ff5764" d="M 26.5,11.5 C 23.8338,11.9342 22.6671,10.9342 23,8.5C 26.5966,6.93388 27.7632,7.93388 26.5,11.5 Z"/></g><g><path fill="#9a5b9e" d="M 15.5,2.5 C 15.8333,2.5 16.1667,2.5 16.5,2.5C 17.9418,3.81953 18.6085,5.4862 18.5,7.5C 18.5,7.83333 18.5,8.16667 18.5,8.5C 17.1667,9.16667 16.1667,10.1667 15.5,11.5C 14.399,12.7997 13.0657,13.2997 11.5,13C 12.8228,12.1841 13.4894,11.0174 13.5,9.5C 15.2132,8.36465 15.8799,6.69798 15.5,4.5C 13.6693,5.05216 12.0026,5.05216 10.5,4.5C 11.6685,2.78256 13.3352,2.11589 15.5,2.5 Z"/></g><g><path fill="#edba22" d="M 6.5,8.5 C 9.80184,15.1352 14.8018,20.1352 21.5,23.5C 20.4863,24.6737 19.153,25.3404 17.5,25.5C 16.0351,24.2632 14.3684,23.2632 12.5,22.5C 10.8333,20.5 9.16667,18.5 7.5,16.5C 6.97439,14.7697 5.97439,13.4363 4.5,12.5C 5.16667,11.1667 5.83333,9.83333 6.5,8.5 Z"/></g><g><path fill="#d35827" d="M 6.5,8.5 C 6.7352,7.90326 7.2352,7.56993 8,7.5C 9.80029,8.31952 11.6336,8.98619 13.5,9.5C 13.4894,11.0174 12.8228,12.1841 11.5,13C 13.0657,13.2997 14.399,12.7997 15.5,11.5C 16.5,12.8333 17.5,14.1667 18.5,15.5C 18.5,16.8333 19.1667,17.5 20.5,17.5C 22.4748,19.3619 22.8081,21.3619 21.5,23.5C 14.8018,20.1352 9.80184,15.1352 6.5,8.5 Z"/></g><g><path fill="#3b94d3" d="M 31.5,11.5 C 31.5,12.1667 31.5,12.8333 31.5,13.5C 30.7777,14.5511 29.7777,15.2178 28.5,15.5C 28.5,15.1667 28.5,14.8333 28.5,14.5C 28.5,13.8333 28.1667,13.5 27.5,13.5C 26.8333,13.5 26.5,13.1667 26.5,12.5C 26.5,12.1667 26.5,11.8333 26.5,11.5C 27.7348,11.2786 28.7348,10.6119 29.5,9.5C 30.1818,10.2427 30.8485,10.9094 31.5,11.5 Z"/></g><g><path fill="#fe5463" d="M 26.5,12.5 C 26.5,13.1667 26.8333,13.5 27.5,13.5C 28.1667,13.5 28.5,13.8333 28.5,14.5C 28.5,14.8333 28.5,15.1667 28.5,15.5C 28.5,16.5 28.5,17.5 28.5,18.5C 25.8688,19.8689 25.2022,19.2022 26.5,16.5C 24.1474,13.8274 22.1474,14.1608 20.5,17.5C 19.1667,17.5 18.5,16.8333 18.5,15.5C 20.5452,13.0156 23.2118,12.0156 26.5,12.5 Z"/></g><g><path fill="#fc6b57" d="M 4.5,12.5 C 5.97439,13.4363 6.97439,14.7697 7.5,16.5C 6.32627,17.5137 5.6596,18.847 5.5,20.5C 3.89578,19.713 3.22911,18.3797 3.5,16.5C 3.43255,15.0413 3.76589,13.7079 4.5,12.5 Z"/></g><g><path fill="#efc020" d="M 3.5,16.5 C 3.22911,18.3797 3.89578,19.713 5.5,20.5C 7.23931,23.2427 9.57265,25.2427 12.5,26.5C 12.5,26.8333 12.5,27.1667 12.5,27.5C 10.4907,29.0652 8.15734,30.0652 5.5,30.5C 3.83333,28.5 2.16667,26.5 0.5,24.5C 0.732915,21.4582 1.73292,18.7916 3.5,16.5 Z"/></g><g><path fill="#945aa5" d="M 28.5,18.5 C 29.5,18.5 30.5,18.5 31.5,18.5C 31.5,19.5 31.5,20.5 31.5,21.5C 30.5,21.5 29.5,21.5 28.5,21.5C 28.5,20.5 28.5,19.5 28.5,18.5 Z"/></g><g><path fill="#aa6fa9" d="M 7.5,16.5 C 9.16667,18.5 10.8333,20.5 12.5,22.5C 12.5,23.8333 12.5,25.1667 12.5,26.5C 9.57265,25.2427 7.23931,23.2427 5.5,20.5C 5.6596,18.847 6.32627,17.5137 7.5,16.5 Z"/></g><g><path fill="#fb645c" d="M 12.5,22.5 C 14.3684,23.2632 16.0351,24.2632 17.5,25.5C 16.2196,26.9313 14.5529,27.5979 12.5,27.5C 12.5,27.1667 12.5,26.8333 12.5,26.5C 12.5,25.1667 12.5,23.8333 12.5,22.5 Z"/></g><g><path fill="#ba8370" d="M 4.5,24.5 C 6.33702,24.6395 6.67036,25.3061 5.5,26.5C 4.70245,26.0431 4.36912,25.3764 4.5,24.5 Z"/></g><g><path fill="#fd6855" d="M -0.5,24.5 C -0.166667,24.5 0.166667,24.5 0.5,24.5C 2.16667,26.5 3.83333,28.5 5.5,30.5C 4.83333,30.5 4.5,30.8333 4.5,31.5C 2.83333,31.5 1.16667,31.5 -0.5,31.5C -0.5,29.1667 -0.5,26.8333 -0.5,24.5 Z"/></g></svg>
