<?xml version="1.0" encoding="UTF-8"?>
<!DOCTYPE svg PUBLIC "-//W3C//DTD SVG 1.1//EN" "http://www.w3.org/Graphics/SVG/1.1/DTD/svg11.dtd">
<svg xmlns="http://www.w3.org/2000/svg" version="1.1" width="32px" height="32px" style="shape-rendering:geometricPrecision; text-rendering:geometricPrecision; image-rendering:optimizeQuality; fill-rule:evenodd; clip-rule:evenodd" xmlns:xlink="http://www.w3.org/1999/xlink">
<g><path style="opacity:1" fill="#656e67" d="M 20.5,-0.5 C 21.8333,-0.5 23.1667,-0.5 24.5,-0.5C 26.1675,1.47865 26.8342,3.81198 26.5,6.5C 24.5,6.5 23.5,5.5 23.5,3.5C 22.8333,2.16667 22.1667,2.16667 21.5,3.5C 19.5905,4.97457 18.4238,6.97457 18,9.5C 17.5045,7.5273 17.3379,5.5273 17.5,3.5C 18.147,1.85946 19.147,0.526127 20.5,-0.5 Z"/></g>
<g><path style="opacity:0.974" fill="#9bc86b" d="M 17.5,3.5 C 17.3379,5.5273 17.5045,7.5273 18,9.5C 18.4238,6.97457 19.5905,4.97457 21.5,3.5C 21.8333,3.5 22.1667,3.5 22.5,3.5C 23.9665,7.07363 24.7998,10.7403 25,14.5C 21.489,20.1946 17.989,25.8613 14.5,31.5C 13.8333,31.5 13.1667,31.5 12.5,31.5C 9.40223,29.1084 6.06889,26.9417 2.5,25C 1.91858,24.1074 1.58524,23.1074 1.5,22C 3.92147,16.3246 6.75481,10.8246 10,5.5C 12.3015,4.13279 14.8015,3.46612 17.5,3.5 Z"/></g>
<g><path style="opacity:1" fill="#70ace1" d="M 22.5,3.5 C 22.8333,3.5 23.1667,3.5 23.5,3.5C 23.5,5.5 24.5,6.5 26.5,6.5C 27.4584,6.9528 28.2917,7.61947 29,8.5C 29.7981,16.246 29.6314,23.9127 28.5,31.5C 23.8333,31.5 19.1667,31.5 14.5,31.5C 17.989,25.8613 21.489,20.1946 25,14.5C 24.7998,10.7403 23.9665,7.07363 22.5,3.5 Z"/></g>
<g><path style="opacity:1" fill="#bddcce" d="M 12.5,12.5 C 13.7759,13.3864 13.7759,14.3864 12.5,15.5C 11.4376,14.5754 11.4376,13.5754 12.5,12.5 Z"/></g>
<g><path style="opacity:1" fill="#c7e1ed" d="M 14.5,15.5 C 15.552,15.3505 16.552,15.5172 17.5,16C 15.1891,18.1637 12.5225,19.1637 9.5,19C 11.2331,17.8111 12.8998,16.6444 14.5,15.5 Z"/></g>
</svg>
