<svg xmlns="http://www.w3.org/2000/svg" version="1.1" width="32px" height="32px" xmlns:xlink="http://www.w3.org/1999/xlink"><g><path fill="#34c4f2" d="M 17.5,3.5 C 17.6574,6.31757 18.9908,8.31757 21.5,9.5C 20.5546,14.4053 20.2213,19.4053 20.5,24.5C 18.4907,26.0652 16.1573,27.0652 13.5,27.5C 12.3933,25.0311 10.3933,24.0311 7.5,24.5C 7.5,22.8333 7.5,21.1667 7.5,19.5C 8.71957,17.7179 9.38623,15.7179 9.5,13.5C 11.604,13.7989 13.604,13.4656 15.5,12.5C 13.9292,9.90656 11.5959,8.90656 8.5,9.5C 9.10978,8.60895 9.44312,7.60895 9.5,6.5C 12.0067,5.10841 14.6733,4.10841 17.5,3.5 Z"/></g><g><path fill="#27ace9" d="M -0.5,4.5 C 2.93889,4.78777 6.27222,5.45444 9.5,6.5C 9.44312,7.60895 9.10978,8.60895 8.5,9.5C 7.87605,9.91695 7.54272,10.5836 7.5,11.5C 7.74716,12.7133 8.41383,13.38 9.5,13.5C 9.38623,15.7179 8.71957,17.7179 7.5,19.5C 4.09525,18.8087 1.42858,17.1421 -0.5,14.5C -0.5,11.1667 -0.5,7.83333 -0.5,4.5 Z"/></g><g><path fill="#a3d75d" d="M 31.5,4.5 C 31.5,9.5 31.5,14.5 31.5,19.5C 26.9957,18.6732 24.4957,16.0065 24,11.5C 23.2917,10.6195 22.4584,9.9528 21.5,9.5C 18.9908,8.31757 17.6574,6.31757 17.5,3.5C 22.2357,2.3167 26.9023,2.65004 31.5,4.5 Z"/></g><g><path fill="#a2de75" d="M 8.5,9.5 C 11.5959,8.90656 13.9292,9.90656 15.5,12.5C 13.604,13.4656 11.604,13.7989 9.5,13.5C 8.41383,13.38 7.74716,12.7133 7.5,11.5C 7.54272,10.5836 7.87605,9.91695 8.5,9.5 Z"/></g><g><path fill="#08adee" d="M 21.5,9.5 C 22.4584,9.9528 23.2917,10.6195 24,11.5C 24.4957,16.0065 26.9957,18.6732 31.5,19.5C 31.5,20.8333 31.5,22.1667 31.5,23.5C 28.1456,21.8868 25.1456,22.2202 22.5,24.5C 21.8333,24.5 21.1667,24.5 20.5,24.5C 20.2213,19.4053 20.5546,14.4053 21.5,9.5 Z"/></g><g><path fill="#97d564" d="M -0.5,14.5 C 1.42858,17.1421 4.09525,18.8087 7.5,19.5C 7.5,21.1667 7.5,22.8333 7.5,24.5C 10.3933,24.0311 12.3933,25.0311 13.5,27.5C 8.76432,28.6833 4.09765,28.35 -0.5,26.5C -0.5,22.5 -0.5,18.5 -0.5,14.5 Z"/></g><g><path fill="#9fe180" d="M 13.5,16.5 C 16.1247,17.4657 16.1247,18.4657 13.5,19.5C 12.4376,18.5754 12.4376,17.5754 13.5,16.5 Z"/></g><g><path fill="#8bd072" d="M 31.5,23.5 C 31.5,24.5 31.5,25.5 31.5,26.5C 28.2727,26.3239 25.2727,25.6572 22.5,24.5C 25.1456,22.2202 28.1456,21.8868 31.5,23.5 Z"/></g></svg>
