<svg xmlns="http://www.w3.org/2000/svg" version="1.1" width="32px" height="32px" xmlnsXlink="http://www.w3.org/1999/xlink">
    <g><path fill="#15aaf2" d="M 10.5,-0.5 C 13.8333,-0.5 17.1667,-0.5 20.5,-0.5C 25.5,1.83333 29.1667,5.5 31.5,10.5C 31.5,11.1667 31.5,11.8333 31.5,12.5C 29.5,10.8333 27.5,9.16667 25.5,7.5C 22.9926,7.80464 20.3259,7.9713 17.5,8C 15.9632,9.10963 15.2965,10.6096 15.5,12.5C 12.1485,11.9916 9.14847,10.6582 6.5,8.5C 5.24604,10.2592 5.57938,11.7592 7.5,13C 6.83333,13.3333 6.16667,13.6667 5.5,14C 7.23352,16.2658 8.90019,18.4325 10.5,20.5C 8.92226,21.2978 7.2556,21.7978 5.5,22C 6.05596,22.3826 6.38929,22.8826 6.5,23.5C 8.16667,25.8333 10.1667,27.8333 12.5,29.5C 12.8333,30.1667 13.1667,30.8333 13.5,31.5C 12.5,31.5 11.5,31.5 10.5,31.5C 5.5,29.1667 1.83333,25.5 -0.5,20.5C -0.5,17.1667 -0.5,13.8333 -0.5,10.5C 1.83333,5.5 5.5,1.83333 10.5,-0.5 Z"/></g><g><path fill="#f6fafc" d="M 25.5,7.5 C 24.3964,10.0307 23.5631,13.0307 23,16.5C 19.2383,22.5964 13.7383,24.9297 6.5,23.5C 6.38929,22.8826 6.05596,22.3826 5.5,22C 7.2556,21.7978 8.92226,21.2978 10.5,20.5C 8.90019,18.4325 7.23352,16.2658 5.5,14C 6.16667,13.6667 6.83333,13.3333 7.5,13C 5.57938,11.7592 5.24604,10.2592 6.5,8.5C 9.14847,10.6582 12.1485,11.9916 15.5,12.5C 15.2965,10.6096 15.9632,9.10963 17.5,8C 20.3259,7.9713 22.9926,7.80464 25.5,7.5 Z"/></g><g><path fill="#0699db" d="M 31.5,13.5 C 31.5,15.8333 31.5,18.1667 31.5,20.5C 29.1667,25.5 25.5,29.1667 20.5,31.5C 18.1667,31.5 15.8333,31.5 13.5,31.5C 13.1667,30.8333 12.8333,30.1667 12.5,29.5C 13.552,29.6495 14.552,29.4828 15.5,29C 20.6754,23.6578 26.0087,18.4911 31.5,13.5 Z"/></g><g><path fill="#1489c1" d="M 25.5,7.5 C 27.5,9.16667 29.5,10.8333 31.5,12.5C 31.5,12.8333 31.5,13.1667 31.5,13.5C 26.0087,18.4911 20.6754,23.6578 15.5,29C 14.552,29.4828 13.552,29.6495 12.5,29.5C 10.1667,27.8333 8.16667,25.8333 6.5,23.5C 13.7383,24.9297 19.2383,22.5964 23,16.5C 23.5631,13.0307 24.3964,10.0307 25.5,7.5 Z"/></g>
</svg>